<svg width="96" height="96" viewBox="0 0 480 480" fill="none" xmlns="http://www.w3.org/2000/svg">
<path d="M133.6 185.2C104 223.067 80.6667 261.067 63.6 299.2L20 258.8C37.3333 226.267 60.1333 192.267 88.4 156.8L64.4 143.2L98.8 100L124.8 114.4C157.333 79.7333 188.8 50.9333 219.2 28L248.8 54.8C252.8 38.2667 256 22 258.4 6L308.4 49.2C292.667 129.2 260.8 214.933 212.8 306.4L167.2 264.8C175.733 249.333 181.867 238 185.6 230.8C170.933 214.533 153.6 199.333 133.6 185.2ZM168.4 144.4C182.8 155.333 196 167.2 208 180C224.267 139.467 236.267 103.867 244 73.2C220.533 91.6 195.333 115.333 168.4 144.4Z" fill="#5757A3"/>
<path d="M181.4 432.6C199.267 393.133 215.267 361.8 229.4 338.6C252.333 300.467 276.2 266.733 301 237.4C282.6 234.2 266.067 232.6 251.4 232.6L268.6 185C318.733 186.6 362.333 193.133 399.4 204.6C413.267 208.867 427.267 214.067 441.4 220.2L472.6 290.2C454.2 316.333 430.6 339 401.8 358.2C373.267 377.133 342.333 391.133 309 400.2L282.6 362.6C261.8 397.533 243.267 434.867 227 474.6L181.4 432.6ZM288.6 352.6C344.867 333.133 387.133 306.333 415.4 272.2C390.067 258.867 356.067 247.933 313.4 239.4L347.8 267.8C326.467 294.733 306.733 323 288.6 352.6Z" fill="#2E2E8A"/>
</svg>
